<mxfile host="app.diagrams.net" modified="2024-04-16T12:09:45.905Z" agent="Mozilla/5.0 (Windows NT 10.0; Win64; x64) AppleWebKit/537.36 (KHTML, like Gecko) Chrome/121.0.0.0 Safari/537.36 OPR/107.0.0.0" version="24.2.5" etag="HR_dDgV0h80HdUcQdm9D" type="github">
  <diagram name="Strona-1" id="XkYLfurVMoklSscanKzM">
    <mxGraphModel>
      <root>
        <mxCell id="0" />
        <mxCell id="1" parent="0" />
      </root>
    </mxGraphModel>
  </diagram>
</mxfile>
